<svg width="900" height="334" viewBox="0 0 900 334" fill="none" xmlns="http://www.w3.org/2000/svg">
<path d="M212.691 273.065C211.676 274.081 210.465 274.876 209.059 275.453C207.662 276.019 206.139 276.302 204.488 276.302C202.838 276.302 201.314 276.019 199.918 275.453C198.521 274.886 197.306 274.09 196.271 273.065C195.245 272.03 194.444 270.819 193.868 269.432C193.302 268.036 193.019 266.517 193.019 264.876C193.019 263.226 193.302 261.708 193.868 260.321C194.444 258.924 195.245 257.713 196.271 256.688C197.306 255.663 198.521 254.867 199.918 254.3C201.314 253.734 202.838 253.451 204.488 253.451C206.129 253.451 207.647 253.739 209.044 254.315C210.45 254.881 211.656 255.667 212.662 256.673L210.421 258.958C209.688 258.128 208.81 257.479 207.784 257.01C206.769 256.532 205.655 256.292 204.444 256.292C203.272 256.292 202.193 256.507 201.207 256.937C200.221 257.357 199.361 257.958 198.629 258.739C197.896 259.51 197.325 260.418 196.915 261.463C196.515 262.508 196.314 263.646 196.314 264.876C196.314 266.107 196.515 267.245 196.915 268.29C197.325 269.334 197.896 270.248 198.629 271.029C199.361 271.8 200.221 272.401 201.207 272.831C202.193 273.25 203.272 273.46 204.444 273.46C205.655 273.46 206.769 273.226 207.784 272.757C208.81 272.279 209.684 271.625 210.406 270.794L212.691 273.065ZM236.645 275.863H233.422V256.732H226.552V253.89H243.515V256.732H236.645V275.863ZM275.246 275.863H271.657L266.633 267.264H261.286V275.863H258.063V253.89H266.589C268.229 253.89 269.636 254.159 270.808 254.696C271.979 255.233 272.883 256 273.518 256.996C274.152 257.992 274.47 259.183 274.47 260.57C274.47 262.123 274.074 263.431 273.283 264.496C272.492 265.56 271.374 266.317 269.929 266.766L275.246 275.863ZM261.286 264.54H266.369C267.873 264.54 269.05 264.198 269.899 263.514C270.749 262.821 271.174 261.859 271.174 260.628C271.174 259.408 270.749 258.456 269.899 257.772C269.06 257.079 267.883 256.732 266.369 256.732H261.286V264.54ZM304.077 275.863H290.308V253.89H293.53V273.021H304.077V275.863ZM350.694 269.842H345.816V274.735H343.165V269.842H338.272V267.44H343.165V262.547H345.816V267.44H350.694V269.842ZM387.893 275.863H384.509L393.444 253.89H396.901L405.822 275.863H402.438L400.241 270.34H390.09L387.893 275.863ZM391.188 267.499H399.143L395.158 257.464L391.188 267.499ZM434.272 275.863H420.503V253.89H423.726V273.021H434.272V275.863ZM454.227 275.863H451.004V256.732H444.134V253.89H461.097V256.732H454.227V275.863ZM507.216 269.842H502.338V274.735H499.687V269.842H494.794V267.44H499.687V262.547H502.338V267.44H507.216V269.842ZM542.583 275.863V253.89H549.204C551.88 253.89 554.189 254.334 556.133 255.223C558.076 256.102 559.57 257.362 560.615 259.002C561.66 260.643 562.183 262.601 562.183 264.876C562.183 267.142 561.66 269.1 560.615 270.75C559.57 272.391 558.076 273.656 556.133 274.544C554.189 275.423 551.88 275.863 549.204 275.863H542.583ZM545.806 273.021H549.336C551.357 273.021 553.081 272.704 554.507 272.069C555.933 271.424 557.017 270.497 557.759 269.286C558.511 268.065 558.887 266.595 558.887 264.876C558.887 263.148 558.511 261.678 557.759 260.467C557.017 259.256 555.933 258.333 554.507 257.699C553.081 257.054 551.357 256.732 549.336 256.732H545.806V273.021ZM577.464 275.863V253.89H591.16V256.732H580.687V263.309H590.56V266.151H580.687V273.021H591.307V275.863H577.464ZM621.163 275.863H607.394V253.89H610.616V273.021H621.163V275.863ZM636.21 275.863V253.89H649.906V256.732H639.433V263.309H649.306V266.151H639.433V273.021H650.053V275.863H636.21ZM674.562 275.863H671.34V256.732H664.47V253.89H681.433V256.732H674.562V275.863ZM695.981 275.863V253.89H709.678V256.732H699.204V263.309H709.077V266.151H699.204V273.021H709.824V275.863H695.981Z" fill="white"/>
<g filter="url(#filter0_d_1642_4)">
<rect x="667.776" y="100.583" width="132.222" height="132.222" fill="black"/>
<path d="M735.686 221.928C704.769 221.928 686.686 197.136 686.686 168.99V168.699C686.686 140.553 705.061 115.469 735.978 115.469C766.895 115.469 784.978 140.261 784.978 168.407V168.699C784.978 196.845 766.603 221.928 735.686 221.928ZM735.686 188.735C742.455 188.735 751.145 182.699 751.145 168.699C751.145 154.699 743.422 149.27 735.978 149.27C728.533 149.27 720.519 154.407 720.519 168.407C720.519 182.407 728.917 188.735 735.686 188.735Z" fill="white"/>
<rect x="535.424" y="100.525" width="132.222" height="132.222" fill="white"/>
<path d="M604.7 217.514L606.899 200.05H550.911L603.837 115.758H632.98V176.234H645.23V200.05H632.98V217.514H604.7ZM591.616 176.234H604.7V153.187L591.616 176.234Z" fill="black"/>
<path d="M667.778 217.515C669.182 217.515 670.573 217.239 671.87 216.701C673.168 216.164 674.347 215.376 675.34 214.383C676.333 213.39 677.121 212.211 677.658 210.914C678.196 209.616 678.472 208.225 678.472 206.821C678.472 205.417 678.196 204.026 677.658 202.728C677.121 201.431 676.333 200.252 675.34 199.259C674.347 198.266 673.168 197.478 671.87 196.941C670.573 196.403 669.182 196.126 667.778 196.126L667.778 206.821L667.778 217.515Z" fill="white"/>
<path d="M667.777 217.515C666.373 217.515 664.982 217.239 663.684 216.701C662.387 216.164 661.208 215.376 660.215 214.383C659.222 213.39 658.434 212.211 657.897 210.914C657.359 209.616 657.083 208.225 657.083 206.821C657.083 205.417 657.359 204.026 657.897 202.728C658.434 201.431 659.222 200.252 660.215 199.259C661.208 198.266 662.387 197.478 663.684 196.941C664.982 196.403 666.373 196.126 667.777 196.126L667.777 206.821L667.777 217.515Z" fill="black"/>
<rect x="366.543" y="100" width="133.272" height="133.272" fill="black"/>
<path d="M387.834 218.63V116.547H426.918C467.46 116.547 487.73 136.38 487.73 166.713V167.005C487.73 197.338 467.022 218.63 425.751 218.63H387.834ZM427.647 146.297H421.96V188.88H427.647C443.397 188.88 453.314 182.463 453.314 167.734V167.443C453.314 152.713 443.397 146.297 427.647 146.297Z" fill="white"/>
<rect x="233.271" y="100" width="133.272" height="133.272" fill="white"/>
<path d="M239.97 218.994L299.616 116.182L359.845 218.994H323.473L317.407 205.286H280.79L274.466 218.994H239.97ZM292.416 181.078H305.678L299.076 167.01L292.416 181.078Z" fill="black"/>
<rect x="100" y="100" width="133.272" height="133.272" fill="black"/>
<path d="M168.971 221.279C134.288 221.279 116.033 199.987 116.033 168.341V168.05C116.033 137.571 134.19 114.821 170.283 114.821C196.862 114.821 208.637 129.841 217.241 145.446L188.366 157.212C184.429 149.775 177.305 145.446 169.846 145.446C156.538 145.446 148.157 155.946 148.157 168.196C148.157 181.467 157.544 190.654 169.846 190.654C179.616 190.654 184.137 186.196 188.366 178.613L217.241 190.654C208.637 205.821 194.2 221.279 168.971 221.279Z" fill="white"/>
</g>
<defs>
<filter id="filter0_d_1642_4" x="0" y="0" width="899.999" height="333.272" filterUnits="userSpaceOnUse" color-interpolation-filters="sRGB">
<feFlood flood-opacity="0" result="BackgroundImageFix"/>
<feColorMatrix in="SourceAlpha" type="matrix" values="0 0 0 0 0 0 0 0 0 0 0 0 0 0 0 0 0 0 127 0" result="hardAlpha"/>
<feOffset/>
<feGaussianBlur stdDeviation="50"/>
<feComposite in2="hardAlpha" operator="out"/>
<feColorMatrix type="matrix" values="0 0 0 0 1 0 0 0 0 1 0 0 0 0 1 0 0 0 0.12 0"/>
<feBlend mode="normal" in2="BackgroundImageFix" result="effect1_dropShadow_1642_4"/>
<feBlend mode="normal" in="SourceGraphic" in2="effect1_dropShadow_1642_4" result="shape"/>
</filter>
</defs>
</svg>
